:SAMPLES-PER-SECOND 30
:FULLY-SPECIFIED
:DEGREES
190
root  34.80229415 36.56760088 -14.20724523 9.801977158 -3.958127737 3.962709904
lowerback  -7.913668633 0.04084906355 -1.309367895
upperback  -4.084794521 0.7429329753 -4.776860237
thorax  0.2585020065 0.5824620128 -4.149662495
lowerneck  -6.945449829 -14.78440952 -9.50387001
upperneck  13.97089958 -20.72909737 13.2585001
head  7.850018978 -9.27175045 3.623144865
lclavicle  0 -4.497500157e-015 -2.743230041e-014
lhumerus  -47.63729858 30.92570114 60.8443985
lradius  -0.001943626674 -6.507048965e-006 28.99806213
lwrist  3.192251654e-007 -3.790274832e-007 -30.36400032
lhand  -4.44864644e-031 -37.46239853 -10.61909962
lfingers  90 7.125020027 -90
lthumb  95.06720745 -25.43556326 101.6650055
rclavicle  0 -4.497500157e-015 -2.743230041e-014
rhumerus  18.86270332 -36.9253006 -39.02890396
rradius  -5.16745672e-007 2.214343908e-008 39.69639969
rwrist  0.0003490542294 -0.002273720223 -159.4440002
rhand  -1.771347437e-031 4.631830215 -7.63601017
rfingers  -90 -7.125020027 -90
rthumb  -85.07129758 -8.457841046 -59.61663409
rfemur  -11.35757256 15.1656723 12.3215313
rtibia  -0.5596054792 -1.391356707 18.51555443
rfoot  1.373338699 -21.62425613 -35.47153854
rtoes  3.835561359 19.64356424 -101.2787589
lfemur  -3.771036625 -16.98571587 -23.00310326
ltibia  7.033990383 -0.7206221819 7.06242466
lfoot  0.4807142615 -20.50142097 36.42875671
ltoes  -8.657021693 -18.09887191 -116.1095585
191
root  34.80171444 36.56644145 -14.20789553 9.799556732 -3.939572573 3.972656488
lowerback  -7.909918308 0.04167191312 -1.291062355
upperback  -4.080800056 0.7290310264 -4.762690067
thorax  0.2625060081 0.574443996 -4.148363113
lowerneck  -6.94423008 -14.78443527 -9.536160469
upperneck  13.95160007 -20.72910118 13.28139973
head  7.849745274 -9.271980286 3.634698868
lclavicle  0 -4.497500157e-015 -2.743230041e-014
lhumerus  -47.62689972 30.98019981 60.85350037
lradius  -0.007510660216 -6.507048965e-006 28.9849987
lwrist  3.192251654e-007 -3.790274832e-007 -30.38600349
lhand  -4.446661019e-031 -37.42900085 -10.61639977
lfingers  90 7.125020027 -90
lthumb  95.05099193 -25.43419218 101.6290747
rclavicle  0 -4.497500157e-015 -2.743230041e-014
rhumerus  18.82119751 -36.94889832 -39.00569916
rradius  -5.16745672e-007 2.214343908e-008 39.75640106
rwrist  0.0003490542294 -0.002273720223 -159.5099945
rhand  -1.771050294e-031 4.511620045 -7.699289799
rfingers  -90 -7.125020027 -90
rthumb  -85.1311005 -8.395124379 -59.73844529
rfemur  -11.36434364 15.16066265 12.3161335
rtibia  -0.5619184375 -1.401845336 18.54317284
rfoot  1.343015909 -21.66069984 -35.50850677
rtoes  3.84916503 19.64100437 -101.3192284
lfemur  -3.725978136 -16.92932701 -23.03463936
ltibia  7.082790852 -0.7122702599 6.969516277
lfoot  0.4622049332 -20.47930336 36.35870361
ltoes  -8.691414072 -18.08281019 -116.2203142
192
root  34.80213195 36.56638138 -14.2098194 9.811271667 -3.955215454 3.968549967
lowerback  -7.888675213 0.04054364935 -1.284848809
upperback  -4.080979824 0.7275339961 -4.760690212
thorax  0.2505240142 0.5731920004 -4.146679878
lowerneck  -6.934599876 -14.78425407 -9.515850067
upperneck  13.93159962 -20.7147007 13.25650024
head  7.834664822 -9.27270031 3.627472639
lclavicle  0 -4.497500157e-015 -2.743230041e-014
lhumerus  -47.6495018 31.01260185 60.84389877
lradius  -0.01292386651 -6.507048965e-006 28.9814167
lwrist  3.192251654e-007 -3.790274832e-007 -30.4102993
lhand  -4.446417461e-031 -37.42490005 -10.58600044
lfingers  90 7.125020027 -90
lthumb  95.04224877 -25.40447313 101.6217233
rclavicle  0 -4.497500157e-015 -2.743230041e-014
rhumerus  18.75580025 -36.9611969 -38.97370148
rradius  -5.16745672e-007 2.214343908e-008 39.77500153
rwrist  0.0003490542294 -0.002273720223 -159.7180023
rhand  -1.771052586e-031 4.512559891 -7.809189796
rfingers  -90 -7.125020027 -90
rthumb  -85.18683755 -8.300293962 -59.74564965
rfemur  -11.38529587 15.18149281 12.31591034
rtibia  -0.5639860034 -1.381842017 18.54701042
rfoot  1.34693718 -21.60993767 -35.51742554
rtoes  3.85329536 19.64022527 -101.3315167
lfemur  -3.808174133 -16.95611 -22.99902344
ltibia  7.024806023 -0.7155526876 7.0886693
lfoot  0.4693990052 -20.51369286 36.37236023
ltoes  -8.69457704 -18.08132903 -116.2305049
193
root  34.80283181 36.5654262 -14.21188294 9.790884018 -3.958602428 3.953880548
lowerback  -7.909870148 0.03567475826 -1.280750155
upperback  -4.078219891 0.7364349961 -4.756820202
thorax  0.2656390071 0.5714886785 -4.143760204
lowerneck  -6.960720062 -14.78362179 -9.566109657
upperneck  13.94200039 -20.72449875 13.27810001
head  7.851814747 -9.273964882 3.637012482
lclavicle  0 -4.497500157e-015 -2.743230041e-014
lhumerus  -47.62269974 31.0100975 60.90390015
lradius  -0.01818484627 -6.507048965e-006 28.98310089
lwrist  3.192251654e-007 -3.790274832e-007 -30.38710022
lhand  -4.446601654e-031 -37.4280014 -10.61180019
lfingers  90 7.125020027 -90
lthumb  95.04951702 -25.4296681 101.6276323
rclavicle  0 -4.497500157e-015 -2.743230041e-014
rhumerus  18.72459984 -37.03879929 -38.9618988
rradius  -5.16745672e-007 2.214343908e-008 39.80879974
rwrist  0.0003490542294 -0.002273720223 -159.6880035
rhand  -3.541917169e-031 4.473859787 -7.98153019
rfingers  -90 -7.125020027 -90
rthumb  -85.28320901 -8.14869919 -59.79582969
rfemur  -11.3581686 15.18594456 12.3346529
rtibia  -0.5643115044 -1.383915186 18.5335083
rfoot  1.357028127 -21.6343708 -35.49297714
rtoes  3.817360704 19.64697437 -101.2246219
lfemur  -3.884028435 -16.99796486 -22.94939232
ltibia  6.939660072 -0.72147578 7.262895584
lfoot  0.4925824404 -20.57318306 36.42837906
ltoes  -8.698869154 -18.07931802 -116.2443348
194
root  34.80366084 36.56552533 -14.21409367 9.784789085 -3.95950532 3.962980747
lowerback  -7.928510189 0.02626225725 -1.286109567
upperback  -4.065269947 0.7222319841 -4.731800079
thorax  0.2881520092 0.5695955753 -4.115399837
lowerneck  -6.994150162 -14.7823 -9.545960426
upperneck  13.94890022 -20.71360207 13.22290039
head  7.849860191 -9.275826454 3.616149902
lclavicle  0 -4.497500157e-015 -2.743230041e-014
lhumerus  -47.62269974 31.06150055 60.91550064
lradius  -0.02329520136 -6.507048965e-006 28.99119949
lwrist  3.192251654e-007 -3.790274832e-007 -30.36910057
lhand  -0 -37.4673996 -10.46850014
lfingers  90 7.125020027 -90
lthumb  95.03588168 -25.28783741 101.6559982
rclavicle  0 -4.497500157e-015 -2.743230041e-014
rhumerus  18.75020027 -37.10779953 -39.01119995
rradius  -5.16745672e-007 2.214343908e-008 39.83929825
rwrist  0.0003490542294 -0.002273720223 -159.6300049
rhand  -1.770891108e-031 4.445869923 -7.740680218
rfingers  -90 -7.125020027 -90
rthumb  -85.1671157 -8.354892144 -59.8055004
rfemur  -11.36777973 15.19069386 12.31981564
rtibia  -0.5606538653 -1.392010212 18.55631447
rfoot  1.334470749 -21.65428734 -35.52117157
rtoes  3.821813222 19.64614169 -101.2378649
lfemur  -3.813500881 -17.0200901 -22.99408531
ltibia  6.989991665 -0.7236868739 7.160695076
lfoot  0.4891663194 -20.53676605 36.45818329
ltoes  -8.673915613 -18.0909922 -116.1639511
